<?xml version="1.0" encoding="UTF-8" standalone="no"?>
<!DOCTYPE svg PUBLIC "-//W3C//DTD SVG 1.1//EN" "http://www.w3.org/Graphics/SVG/1.1/DTD/svg11.dtd">
<svg width="100%" height="100%" viewBox="0 0 24 24" version="1.1" xmlns="http://www.w3.org/2000/svg" xmlns:xlink="http://www.w3.org/1999/xlink" xml:space="preserve" xmlns:serif="http://www.serif.com/" style="fill-rule:evenodd;clip-rule:evenodd;stroke-linejoin:round;stroke-miterlimit:2;">
    <g transform="matrix(0.0872521,0,0,0.0872521,-3.4392,-3.5396)">
        <path d="M157.9,301.136L158.401,172.62L91.871,99.632L48.711,52.283C46.843,50.234 46.361,47.276 47.481,44.74C48.601,42.204 51.112,40.568 53.884,40.568L300.015,40.568C302.777,40.568 305.282,42.193 306.407,44.716C307.533,47.239 307.069,50.188 305.223,52.244L197.174,172.601L197.174,301.136L227.357,301.136C231.357,301.136 234.605,304.384 234.605,308.384C234.605,312.385 231.357,315.632 227.357,315.632L128.466,315.632C124.465,315.632 121.218,312.385 121.218,308.384C121.218,304.384 124.465,301.136 128.466,301.136L157.9,301.136ZM107.694,96.209L170.585,165.204C171.767,166.5 172.419,168.193 172.412,169.947L171.901,300.802L183.174,300.802L183.174,169.92C183.174,168.193 183.812,166.528 184.965,165.243L236.737,107.575C235.129,107.703 233.506,107.769 231.894,107.753C219.025,107.62 211.921,105.803 199.454,101.562C188.256,97.753 162.669,88.226 141.26,88.313C125.145,88.378 113.943,92.803 107.694,96.209ZM252.568,89.94L284.323,54.568L69.737,54.568L98.035,85.612C105.351,81.062 119.716,74.4 141.203,74.313C164.269,74.22 191.898,84.204 203.963,88.308C214.759,91.98 220.894,93.639 232.038,93.753C240.427,93.84 249.159,91.127 252.568,89.94Z"/>
    </g>
</svg>
