<?xml version="1.0" encoding="UTF-8" standalone="no"?>
<!DOCTYPE svg PUBLIC "-//W3C//DTD SVG 1.1//EN" "http://www.w3.org/Graphics/SVG/1.1/DTD/svg11.dtd">
<svg width="100%" height="100%" viewBox="0 0 24 24" version="1.1" xmlns="http://www.w3.org/2000/svg" xmlns:xlink="http://www.w3.org/1999/xlink" xml:space="preserve" xmlns:serif="http://www.serif.com/" style="fill-rule:evenodd;clip-rule:evenodd;stroke-linejoin:round;stroke-miterlimit:2;">
    <g transform="matrix(1,0,0,1,-8.88178e-15,-0.546666)">
        <g id="Layer2">
            <g>
                <g transform="matrix(1.363,0,0,1.363,-1.77493,-4.58072)">
                    <path d="M17.164,9.697C18.226,10.525 18.91,11.816 18.91,13.266C18.91,15.762 16.884,17.788 14.389,17.788C12.401,17.788 10.712,16.502 10.106,14.718C9.501,16.502 7.811,17.788 5.824,17.788C3.328,17.788 1.302,15.762 1.302,13.266C1.302,12.735 1.394,12.224 1.563,11.75L1.564,11.749C2.188,9.999 3.86,8.745 5.824,8.745C6.351,8.745 6.857,8.835 7.328,9.002C7.315,8.802 7.316,8.58 7.356,8.408C7.475,7.9 7.854,7.581 8.333,7.581C8.77,7.58 9.147,7.906 9.28,8.178C9.499,8.626 9.243,8.961 9.191,9.024C9.191,9.024 9.067,9.116 8.97,9.113C8.88,9.11 8.674,9.006 8.674,8.846C8.674,8.757 8.746,8.655 8.746,8.655C8.746,8.655 8.818,8.55 8.76,8.433C8.7,8.309 8.532,8.159 8.334,8.159C8.123,8.159 7.971,8.317 7.919,8.54C7.867,8.76 7.904,9.085 7.933,9.267L7.965,9.284C8.964,9.823 9.737,10.726 10.106,11.815C10.389,10.982 10.908,10.257 11.583,9.722C11.451,9.531 11.275,9.214 11.215,8.819C11.196,8.696 11.175,8.439 11.209,8.196C11.237,7.999 11.305,7.812 11.416,7.682C11.656,7.402 11.973,7.304 12.33,7.359C13.094,7.478 13.989,8.217 14.365,8.555C14.741,8.217 15.636,7.478 16.4,7.359C16.757,7.304 17.074,7.402 17.314,7.682C17.425,7.812 17.492,7.999 17.521,8.196C17.555,8.439 17.534,8.696 17.515,8.819C17.458,9.197 17.293,9.504 17.164,9.697ZM12.057,9.393C12.567,9.085 13.143,8.875 13.758,8.789C13.615,8.668 13.439,8.529 13.247,8.397C12.933,8.183 12.574,7.982 12.241,7.93C12.092,7.907 11.956,7.94 11.855,8.058C11.809,8.112 11.793,8.195 11.782,8.278C11.756,8.455 11.773,8.642 11.787,8.732C11.831,9.024 11.963,9.258 12.057,9.393ZM14.978,8.783C15.596,8.864 16.174,9.069 16.687,9.373C16.78,9.235 16.901,9.01 16.943,8.732C16.957,8.642 16.974,8.455 16.948,8.278C16.937,8.195 16.921,8.112 16.874,8.058C16.774,7.94 16.638,7.907 16.488,7.93C16.156,7.982 15.797,8.183 15.483,8.397C15.294,8.527 15.121,8.663 14.978,8.783ZM14.391,9.724C14.119,10.232 13.615,10.994 12.767,11.728C12.235,12.189 10.875,13.126 10.449,13.417C10.528,15.524 12.263,17.21 14.389,17.21C16.544,17.21 18.297,15.478 18.332,13.331C17.938,13.092 16.812,12.39 16.072,11.741C15.148,10.931 14.653,10.221 14.391,9.724ZM18.279,12.619C17.995,10.9 16.596,9.554 14.851,9.35C15.061,9.782 15.511,10.481 16.453,11.306C17.006,11.791 17.782,12.305 18.279,12.619ZM9.729,12.723C9.575,11.607 8.954,10.64 8.069,10.026C8.067,10.432 8.15,11.07 8.59,11.677C8.904,12.111 9.378,12.483 9.729,12.723ZM7.361,9.634C6.888,9.434 6.369,9.323 5.824,9.323C4.264,9.323 2.915,10.23 2.276,11.545C2.856,11.512 3.938,11.398 5.026,11.006C6.328,10.538 7.037,9.96 7.361,9.634ZM2.046,12.133C1.938,12.492 1.88,12.872 1.88,13.266C1.88,15.443 3.647,17.21 5.824,17.21C7.945,17.21 9.678,15.53 9.763,13.43C9.424,13.224 8.605,12.684 8.121,12.016C7.682,11.408 7.537,10.774 7.502,10.292C7.065,10.664 6.341,11.148 5.221,11.55C3.883,12.032 2.553,12.118 2.046,12.133ZM13.935,9.349C12.162,9.553 10.746,10.934 10.488,12.689C11.06,12.294 11.978,11.647 12.389,11.291C13.234,10.559 13.706,9.8 13.935,9.349Z"/>
                </g>
                <g transform="matrix(1.12563,0,0,1.12563,-1.19366,-1.59239)">
                    <path d="M8.586,16.005C8.242,16.375 7.519,16.965 6.398,16.965C4.782,16.965 3.909,15.728 3.909,15.728C3.797,15.571 3.834,15.352 3.992,15.24C4.149,15.128 4.368,15.165 4.48,15.323C4.48,15.323 5.156,16.265 6.398,16.265C7.459,16.265 8.053,15.573 8.196,15.384C8.089,15.028 8.194,14.751 8.195,14.745C8.22,14.581 8.343,14.447 8.563,14.464C8.87,14.488 8.887,14.851 8.887,14.851C8.887,14.851 8.843,15.153 8.929,15.32C9.034,15.519 9.247,15.641 9.288,15.665C9.288,15.665 9.593,15.78 9.5,16.07C9.404,16.369 9.126,16.325 9.126,16.325C9.059,16.325 8.94,16.289 8.887,16.257C8.844,16.232 8.721,16.145 8.586,16.005Z"/>
                </g>
                <g transform="matrix(1.12563,0,0,1.12563,10.6869,-1.59239)">
                    <path d="M3.909,15.728C3.797,15.571 3.834,15.352 3.992,15.24C4.149,15.128 4.368,15.165 4.48,15.323C4.48,15.323 5.156,16.265 6.398,16.265C7.627,16.265 8.229,15.337 8.229,15.337C8.333,15.174 8.55,15.126 8.713,15.23C8.876,15.334 8.923,15.551 8.819,15.714C8.819,15.714 8.029,16.965 6.398,16.965C4.782,16.965 3.909,15.728 3.909,15.728Z"/>
                </g>
                <g transform="matrix(2.22363,0,0,2.22363,-18.6797,-16.0402)">
                    <circle cx="15.696" cy="13.021" r="0.264"/>
                </g>
                <g transform="matrix(2.22363,0,0,2.22363,-30.6315,-16.0402)">
                    <circle cx="15.696" cy="13.021" r="0.264"/>
                </g>
                <g transform="matrix(2.22363,0,0,2.22363,-27.384,-16.0402)">
                    <path d="M15.431,13.021C15.431,12.875 15.55,12.757 15.696,12.757C15.841,12.757 15.96,12.875 15.96,13.021L15.431,13.021Z"/>
                </g>
                <g transform="matrix(2.22363,0,0,2.22363,-15.4332,-16.0402)">
                    <circle cx="15.696" cy="13.021" r="0.264"/>
                </g>
            </g>
        </g>
    </g>
</svg>
